<svg width="300" height="90" viewBox="0 0 300 90" fill="none" xmlns="http://www.w3.org/2000/svg">
<g clip-path="url(#clip0_1226_9)">
<path d="M37.5268 32.1136V41.7273H61.7584C61.1151 47.0455 59.1851 51.1364 56.183 53.7955C52.752 57.0682 47.1766 60.75 37.5268 60.75C22.7305 60.75 11.1508 49.2955 11.1508 35.1818C11.1508 21.0682 22.5161 9.61364 37.5268 9.61364C45.461 9.61364 51.4653 12.6818 55.7541 16.5682L62.8306 9.81818C56.8263 4.29545 48.6776 0 37.5268 0C17.1551 0 0 15.75 0 35.1818C0 54.6136 17.1551 70.3636 37.5268 70.3636C48.4632 70.3636 56.8263 66.8864 63.2595 60.5455C69.9071 54.2045 72.0515 45.2045 72.0515 38.0455C72.0515 35.7955 71.837 33.75 71.6226 32.1136H37.5268Z" fill="#4285F4"/>
<path d="M102.073 24.1364C88.9922 24.1364 78.0558 33.75 78.0558 46.8409C78.0558 59.9318 88.7777 69.5454 102.073 69.5454C115.368 69.5454 126.09 60.1364 126.09 47.0454C126.09 33.75 115.368 24.1364 102.073 24.1364ZM102.073 60.75C94.782 60.75 88.5633 55.0227 88.5633 47.0454C88.5633 38.8636 94.782 33.3409 102.073 33.3409C109.364 33.3409 115.583 38.8636 115.583 47.0454C115.583 55.0227 109.364 60.75 102.073 60.75Z" fill="#EA4335"/>
<path d="M219.371 29.25H218.942C216.583 26.5909 212.08 24.1364 206.29 24.1364C194.282 24.1364 183.989 33.9545 183.989 46.8409C183.989 59.5227 194.282 69.5454 206.29 69.5454C212.08 69.5454 216.583 67.0909 218.942 64.4318H219.371V67.7045C219.371 76.2954 214.439 81 206.719 81C200.286 81 196.426 76.7045 194.711 72.8182L185.704 76.5C188.277 82.4318 195.354 90 206.934 90C219.157 90 229.664 83.0454 229.664 66.2727V25.3636H219.8V29.25H219.371ZM207.362 60.75C200.071 60.75 194.711 54.8182 194.711 47.0454C194.711 39.0682 200.286 33.3409 207.362 33.3409C214.439 33.3409 220.014 39.2727 220.014 47.25C220.229 55.0227 214.653 60.75 207.362 60.75Z" fill="#4285F4"/>
<path d="M155.468 24.1364C142.387 24.1364 131.451 33.75 131.451 46.8409C131.451 59.9318 142.173 69.5454 155.468 69.5454C168.763 69.5454 179.485 60.1364 179.485 47.0454C179.485 33.75 168.763 24.1364 155.468 24.1364ZM155.468 60.75C148.177 60.75 141.959 55.0227 141.959 47.0454C141.959 38.8636 148.177 33.3409 155.468 33.3409C162.759 33.3409 168.978 38.8636 168.978 47.0454C168.978 55.0227 162.759 60.75 155.468 60.75Z" fill="#FBBC05"/>
<path d="M237.598 1.02271H247.891V69.75H237.598V1.02271Z" fill="#34A853"/>
<path d="M279.628 60.75C274.267 60.75 270.622 58.5 268.049 53.7954L300 41.3182L298.928 38.6591C296.998 33.5454 290.779 24.1364 278.556 24.1364C266.333 24.1364 256.04 33.3409 256.04 46.8409C256.04 59.5227 266.119 69.5454 279.628 69.5454C290.565 69.5454 296.783 63.2045 299.571 59.5227L291.422 54.4091C288.635 58.2954 284.989 60.75 279.628 60.75ZM278.985 32.7273C283.274 32.7273 286.919 34.7727 287.991 37.6364L266.548 46.2273C266.333 36.8182 273.624 32.7273 278.985 32.7273Z" fill="#EA4335"/>
</g>
<defs>
<clipPath id="clip0_1226_9">
<rect width="300" height="90" fill="white"/>
</clipPath>
</defs>
</svg>
