<svg width="369" height="90" viewBox="0 0 369 90" fill="none" xmlns="http://www.w3.org/2000/svg">
<g clip-path="url(#clip0_1226_32)">
<path d="M145.362 32.4407H157.017V68.9781H145.362V32.4407Z" fill="#E60023"/>
<mask id="mask0_1226_32" style="mask-type:luminance" maskUnits="userSpaceOnUse" x="0" y="0" width="369" height="90">
<path d="M0 -3.57628e-06H369V90H0V-3.57628e-06Z" fill="white"/>
</mask>
<g mask="url(#mask0_1226_32)">
<path d="M159.451 32.4406H170.677V37.4359H170.891C173.608 33.5108 177.112 31.3703 182.189 31.3703C190.197 31.3703 194.916 37.0792 194.916 45.2144V68.978H183.261V47.5696C183.261 43.7158 181.33 41.0752 177.541 41.0752C173.68 41.0752 171.106 44.2867 171.106 48.7824V68.978H159.451V32.4406Z" fill="#E60023"/>
<path d="M158.181 22.6654C158.181 18.8116 155.05 15.6879 151.19 15.6879C147.329 15.6879 144.198 18.8116 144.198 22.6654C144.198 26.5189 147.329 29.6426 151.19 29.6426C155.05 29.6426 158.181 26.5189 158.181 22.6654Z" fill="#E60023"/>
<path d="M276.886 31.9129C276.553 31.883 276.172 31.8697 275.726 31.8697C271.293 31.8697 268.29 33.7964 265.715 38.1495H265.501V32.4407H254.347V68.9778H266.001V52.5647C266.001 44.9597 270.221 41.4356 276.886 42.0505V31.9129Z" fill="#E60023"/>
<path d="M334.08 45.9278C329.432 45.0717 325.285 44.7149 325.285 42.146C325.285 39.8621 327.502 38.7918 330.362 38.7918C333.579 38.7918 335.796 39.7908 336.225 43.0737H346.951C346.379 35.8661 340.801 31.3701 330.434 31.3701C321.782 31.3701 314.632 35.3664 314.632 43.0737C314.632 51.6366 321.424 53.3495 327.788 54.4202C332.65 55.2766 337.083 55.6334 337.083 58.9158C337.083 61.271 334.867 62.5554 331.363 62.5554C327.848 62.5554 325.523 61.0712 324.811 58.0598H313.705C314.522 65.5708 321.128 70.1198 331.435 70.1198C341.016 70.1198 348.095 65.9808 348.095 57.9885C348.095 48.6396 340.515 46.9984 334.08 45.9278Z" fill="#E60023"/>
<path d="M294.965 39.648C298.755 39.648 301.472 42.4312 301.901 46.7847H287.458C288.244 42.4312 290.532 39.648 294.965 39.648ZM295.609 61.6987C290.818 61.6987 288.101 58.6305 287.386 53.7064H313.699C313.77 46.285 311.625 39.9335 307.263 35.9375C304.117 33.0831 299.97 31.3702 294.75 31.3702C283.596 31.3702 275.946 39.7193 275.946 50.6381C275.946 61.6987 283.382 70.0486 295.466 70.0486C300.113 70.0486 303.831 68.8354 306.906 66.6945C310.123 64.4823 312.269 61.3423 313.055 58.0599H301.686C300.685 60.3433 298.683 61.6987 295.609 61.6987Z" fill="#E60023"/>
<path d="M368.621 60.3622C368.081 60.3834 367.356 60.4148 366.69 60.4148C364.187 60.4148 362.614 59.7009 362.614 56.8464V39.7195H368.621V32.4406H362.614V20.8799H351.245V32.4406H347.668V39.7195H351.245V59.3441C351.245 67.1943 356.108 69.4061 362.9 69.4061C365.492 69.4061 367.451 69.2124 368.621 68.9846V60.3622Z" fill="#E60023"/>
<path d="M215.729 60.3788C215.264 60.3968 214.727 60.4148 214.226 60.4148C211.724 60.4148 210.15 59.7009 210.15 56.8464V39.7195H215.729V32.4406H210.15V20.8799H198.782V32.4406H194.991V39.7195H198.782V59.3441C198.782 67.1943 203.644 69.4061 210.437 69.4061C212.735 69.4061 214.534 69.2535 215.729 69.0602V60.3788Z" fill="#E60023"/>
<path d="M241.115 46.7845C240.687 42.4314 237.969 39.6479 234.179 39.6479C229.746 39.6479 227.458 42.4314 226.672 46.7845H241.115ZM215.16 50.638C215.16 39.7195 222.811 31.3704 233.965 31.3704C239.185 31.3704 243.332 33.0829 246.478 35.9374C250.84 39.9337 252.984 46.2849 252.913 53.7066H226.601C227.315 58.6303 230.032 61.699 234.823 61.699C237.898 61.699 239.9 60.3432 240.9 58.0597H252.269C251.483 61.3422 249.338 64.4821 246.12 66.6947C243.046 68.8353 239.328 70.0485 234.68 70.0485C222.596 70.0485 215.16 61.699 215.16 50.638Z" fill="#E60023"/>
<path d="M125.122 41.9319C129.698 41.9319 132.272 39.2201 132.272 35.1521C132.272 31.0848 129.626 28.5871 125.122 28.5871H116.184V41.9319H125.122ZM104.384 17.9541H124.623C130.844 17.9541 135.42 19.6667 138.566 22.664C141.855 25.7323 143.714 30.0858 143.714 35.2237C143.714 45.0002 136.922 51.9227 126.411 51.9227H116.184V68.978H104.384V17.9541Z" fill="#E60023"/>
<path d="M88.385 45C88.385 69.2546 68.6841 88.9171 44.382 88.9171C20.08 88.9171 0.379043 69.2546 0.379043 45C0.379043 20.745 20.08 1.08289 44.382 1.08289C68.6841 1.08289 88.385 20.745 88.385 45Z" fill="white"/>
<path d="M44.3818 1.08264C20.0797 1.08264 0.378814 20.7451 0.378814 44.9998C0.378814 63.6053 11.9772 79.5104 28.346 85.9094C27.9615 82.4347 27.6138 77.0909 28.4986 73.2976C29.2982 69.87 33.6584 51.4679 33.6584 51.4679C33.6584 51.4679 32.3422 48.837 32.3422 44.9476C32.3422 38.8409 35.8887 34.2818 40.3044 34.2818C44.0586 34.2818 45.8719 37.0949 45.8719 40.4681C45.8719 44.2362 43.4681 49.8698 42.2277 55.0906C41.191 59.4617 44.424 63.0264 48.7438 63.0264C56.5646 63.0264 62.5764 54.7961 62.5764 42.9157C62.5764 32.4005 55.006 25.0486 44.196 25.0486C31.6756 25.0486 24.3267 34.4212 24.3267 44.1073C24.3267 47.8819 25.7835 51.9294 27.6015 54.1297C27.9611 54.5646 28.0138 54.9455 27.9066 55.3894C27.5726 56.7764 26.8303 59.7594 26.6846 60.37C26.4927 61.1738 26.0469 61.3445 25.2129 60.9571C19.7172 58.404 16.2812 50.3846 16.2812 43.9435C16.2812 30.09 26.3664 17.3672 45.3557 17.3672C60.6203 17.3672 72.4828 28.2234 72.4828 42.7318C72.4828 57.8672 62.9209 70.0482 49.6492 70.0482C45.1901 70.0482 40.9984 67.7363 39.5635 65.0053C39.5635 65.0053 37.3571 73.3904 36.8222 75.4453C35.8288 79.2599 33.147 84.0414 31.3532 86.9585C35.4702 88.2307 39.8456 88.9169 44.3818 88.9169C68.6842 88.9169 88.3851 69.2544 88.3851 44.9998C88.3851 20.7451 68.6842 1.08264 44.3818 1.08264Z" fill="#E60023"/>
</g>
</g>
<defs>
<clipPath id="clip0_1226_32">
<rect width="369" height="90" fill="white"/>
</clipPath>
</defs>
</svg>
