<svg width="192" height="90" viewBox="0 0 192 90" fill="none" xmlns="http://www.w3.org/2000/svg">
<path d="M158.899 40.0107C160.777 40.0107 162.299 38.4831 162.299 36.5987C162.299 34.7143 160.777 33.1866 158.899 33.1866C157.021 33.1866 155.499 34.7143 155.499 36.5987C155.499 38.4831 157.021 40.0107 158.899 40.0107Z" fill="#FF4500"/>
<path d="M110.337 51.148C112.005 51.148 112.968 49.8927 112.903 48.6695C112.871 48.0257 112.807 47.6073 112.743 47.2854C111.717 42.8433 108.124 39.5601 103.858 39.5601C98.7905 39.5601 94.6849 44.1631 94.6849 49.8283C94.6849 55.4935 98.7905 60.0965 103.858 60.0965C107.034 60.0965 109.311 58.9377 110.947 57.103C111.749 56.2017 111.588 54.8176 110.626 54.1416C109.824 53.5944 108.83 53.7875 108.092 54.3991C107.387 55.0107 106.039 56.2339 103.858 56.2339C101.292 56.2339 99.1113 54.0128 98.6301 51.0837H110.337V51.148ZM103.826 43.4549C106.136 43.4549 108.124 45.2575 108.862 47.736H98.7905C99.5282 45.2253 101.517 43.4549 103.826 43.4549Z" fill="#222222"/>
<path d="M94.8774 41.5879C94.8774 40.6223 94.1717 39.8497 93.2736 39.6888C90.4831 39.2704 87.853 40.3004 86.3455 42.1995V41.942C86.3455 40.751 85.3832 40.0107 84.421 40.0107C83.3625 40.0107 82.4965 40.8798 82.4965 41.942V57.7146C82.4965 58.7446 83.2663 59.6459 84.2927 59.7103C85.4153 59.7746 86.3455 58.9055 86.3455 57.7789V49.6352C86.3455 46.03 89.0398 43.0686 92.7604 43.4871C92.8887 43.4871 93.017 43.4871 93.1453 43.4871C94.1076 43.4227 94.8774 42.5858 94.8774 41.5879Z" fill="#222222"/>
<path d="M160.823 43.648C160.823 42.5858 159.957 41.7167 158.899 41.7167C157.84 41.7167 156.974 42.5858 156.974 43.648C156.974 43.7124 156.974 57.1673 156.974 57.7789C156.974 58.8411 157.84 59.7102 158.899 59.7102C159.957 59.7102 160.823 58.8411 160.823 57.7789C160.823 57.1995 160.823 43.7446 160.823 43.648Z" fill="#222222"/>
<path d="M132.212 32.9614C132.212 31.8991 131.346 31.03 130.288 31.03C129.23 31.03 128.364 31.8991 128.364 32.9614V41.5558C127.048 40.236 125.413 39.5923 123.456 39.5923C118.388 39.5923 114.283 44.1953 114.283 49.8605C114.283 55.5257 118.388 60.1287 123.456 60.1287C125.413 60.1287 127.081 59.4528 128.396 58.133C128.556 59.0343 129.358 59.7103 130.288 59.7103C131.346 59.7103 132.212 58.8412 132.212 57.779V32.9614ZM123.488 56.2983C120.537 56.2983 118.164 53.4335 118.164 49.8605C118.164 46.3197 120.537 43.4227 123.488 43.4227C126.439 43.4227 128.813 46.2875 128.813 49.8605C128.813 53.4335 126.407 56.2983 123.488 56.2983Z" fill="#222222"/>
<path d="M152.291 32.9614C152.291 31.8991 151.425 31.03 150.367 31.03C149.308 31.03 148.442 31.8991 148.442 32.9614V41.5558C147.127 40.236 145.491 39.5923 143.535 39.5923C138.467 39.5923 134.362 44.1953 134.362 49.8605C134.362 55.5257 138.467 60.1287 143.535 60.1287C145.491 60.1287 147.159 59.4528 148.474 58.133C148.635 59.0343 149.437 59.7103 150.367 59.7103C151.425 59.7103 152.291 58.8412 152.291 57.779V32.9614ZM143.535 56.2983C140.584 56.2983 138.21 53.4335 138.21 49.8605C138.21 46.3197 140.584 43.4227 143.535 43.4227C146.486 43.4227 148.859 46.2875 148.859 49.8605C148.859 53.4335 146.486 56.2983 143.535 56.2983Z" fill="#222222"/>
<path d="M170.574 57.8111V43.4549H172.274C173.172 43.4549 173.974 42.7789 174.038 41.8454C174.102 40.8476 173.3 40.0107 172.338 40.0107H170.574V37.3068C170.574 36.2768 169.804 35.3755 168.778 35.3111C167.655 35.2467 166.725 36.1158 166.725 37.2424V40.0429H165.121C164.223 40.0429 163.421 40.7188 163.357 41.6523C163.293 42.6502 164.095 43.4871 165.057 43.4871H166.693V57.8433C166.693 58.9055 167.559 59.7746 168.617 59.7746C169.74 59.7102 170.574 58.8733 170.574 57.8111Z" fill="#222222"/>
<path d="M44.8406 71.9743C59.6853 71.9743 71.7194 59.8975 71.7194 45C71.7194 30.1025 59.6853 18.0258 44.8406 18.0258C29.9959 18.0258 17.9619 30.1025 17.9619 45C17.9619 59.8975 29.9959 71.9743 44.8406 71.9743Z" fill="#FF4500"/>
<path d="M62.7705 45C62.7705 42.8111 61.0064 41.0729 58.8573 41.0729C57.7989 41.0729 56.8366 41.4914 56.131 42.1673C53.4367 40.236 49.7481 38.9806 45.6425 38.8197L47.4387 30.3862L53.2763 31.6416C53.3405 33.1223 54.5593 34.3133 56.0668 34.3133C57.6064 34.3133 58.8573 33.0579 58.8573 31.5128C58.8573 29.9678 57.6064 28.7124 56.0668 28.7124C54.9763 28.7124 54.014 29.3562 53.565 30.2897L47.0538 28.9055C46.8613 28.8733 46.6689 28.9055 46.5406 29.0021C46.3802 29.0987 46.284 29.2596 46.2519 29.4527L44.2633 38.8519C40.0936 38.9806 36.3408 40.236 33.6144 42.1995C32.9088 41.5236 31.9465 41.1051 30.8881 41.1051C28.707 41.1051 26.9749 42.8755 26.9749 45.0321C26.9749 46.6416 27.9372 47.9935 29.2843 48.6051C29.2202 48.9914 29.1881 49.3776 29.1881 49.7961C29.1881 55.8476 36.2125 60.7725 44.8727 60.7725C53.5329 60.7725 60.5573 55.8798 60.5573 49.7961C60.5573 49.4098 60.5252 48.9914 60.4611 48.6051C61.8082 47.9935 62.7705 46.6094 62.7705 45ZM35.8918 47.8004C35.8918 46.2553 37.1427 45 38.6823 45C40.2219 45 41.4728 46.2553 41.4728 47.8004C41.4728 49.3454 40.2219 50.6008 38.6823 50.6008C37.1427 50.633 35.8918 49.3454 35.8918 47.8004ZM51.5122 55.236C49.5877 57.1673 45.9312 57.2961 44.8727 57.2961C43.7822 57.2961 40.1256 57.1351 38.2332 55.236C37.9445 54.9463 37.9445 54.4957 38.2332 54.206C38.5219 53.9163 38.9709 53.9163 39.2596 54.206C40.4785 55.4291 43.0444 55.8476 44.8727 55.8476C46.701 55.8476 49.299 55.4291 50.4858 54.206C50.7745 53.9163 51.2235 53.9163 51.5122 54.206C51.7688 54.4957 51.7688 54.9463 51.5122 55.236ZM50.999 50.633C49.4594 50.633 48.2085 49.3776 48.2085 47.8326C48.2085 46.2875 49.4594 45.0321 50.999 45.0321C52.5386 45.0321 53.7895 46.2875 53.7895 47.8326C53.7895 49.3455 52.5386 50.633 50.999 50.633Z" fill="white"/>
</svg>
