<svg width="300" height="90" viewBox="0 0 300 90" fill="none" xmlns="http://www.w3.org/2000/svg">
<path d="M72.7772 39.9699C58.4929 31.4851 34.9313 30.705 21.2952 34.8445C19.1054 35.5088 16.7898 34.2724 16.1263 32.0822C15.4628 29.8909 16.6977 27.5764 18.8889 26.9105C34.5423 22.1575 60.5636 23.0758 77.0079 32.8396C78.978 34.0088 79.6241 36.5531 78.4562 38.5204C77.2878 40.4901 74.742 41.1395 72.7772 39.9699ZM72.3094 52.5374C71.3077 54.1641 69.1815 54.6738 67.5575 53.6756C55.6487 46.3536 37.4891 44.2326 23.4001 48.51C21.573 49.0623 19.6432 48.032 19.0884 46.2079C18.5377 44.3804 19.5684 42.4536 21.3922 41.8979C37.4871 37.013 57.4949 39.379 71.1728 47.7866C72.7968 48.7869 73.308 50.9148 72.3094 52.5374ZM66.8871 64.6068C66.0912 65.9126 64.3905 66.3222 63.0898 65.5262C52.6834 59.1649 39.5855 57.7277 24.1603 61.2522C22.6737 61.5932 21.1924 60.6611 20.8533 59.1748C20.5128 57.688 21.4407 56.2066 22.9307 55.8673C39.8108 52.0075 54.2908 53.6687 65.9711 60.8077C67.2734 61.6031 67.6835 63.3049 66.8871 64.6068ZM46.5643 0.67587C22.0908 0.67587 2.25018 20.5199 2.25018 44.9992C2.25018 69.4806 22.0908 89.3241 46.5643 89.3241C71.0389 89.3241 90.8784 69.4806 90.8784 44.9992C90.8784 20.5199 71.0389 0.67587 46.5643 0.67587Z" fill="#1ED760"/>
<path d="M122.814 41.5946C115.162 39.7696 113.8 38.4885 113.8 35.7978C113.8 33.2546 116.194 31.5439 119.753 31.5439C123.203 31.5439 126.624 32.8433 130.211 35.5183C130.319 35.5993 130.455 35.6316 130.589 35.6104C130.723 35.5903 130.841 35.5173 130.92 35.4061L134.656 30.1387C134.809 29.9222 134.767 29.6226 134.561 29.4569C130.292 26.0309 125.485 24.3652 119.866 24.3652C111.605 24.3652 105.834 29.3236 105.834 36.4192C105.834 44.0279 110.812 46.7216 119.414 48.8012C126.736 50.4881 127.971 51.901 127.971 54.4278C127.971 57.227 125.473 58.9674 121.451 58.9674C116.986 58.9674 113.343 57.4627 109.267 53.9328C109.166 53.846 109.028 53.8058 108.9 53.8131C108.765 53.8243 108.642 53.8867 108.556 53.9898L104.367 58.9763C104.192 59.1833 104.214 59.4923 104.417 59.6712C109.158 63.9051 114.989 66.1417 121.282 66.1417C130.184 66.1417 135.937 61.276 135.937 53.7459C135.937 47.3818 132.135 43.8623 122.814 41.5946Z" fill="#1ED760"/>
<path d="M162.54 50.124C162.54 55.498 159.23 59.2478 154.492 59.2478C149.807 59.2478 146.273 55.3276 146.273 50.124C146.273 44.9213 149.807 41.0004 154.492 41.0004C159.154 41.0004 162.54 44.8365 162.54 50.124ZM156.077 34.047C152.219 34.047 149.054 35.5671 146.444 38.6819V35.1759C146.444 34.8991 146.22 34.6736 145.943 34.6736H139.092C138.816 34.6736 138.592 34.8991 138.592 35.1759V74.1326C138.592 74.4094 138.816 74.6348 139.092 74.6348H145.943C146.22 74.6348 146.444 74.4094 146.444 74.1326V61.8362C149.054 64.7663 152.22 66.1974 156.077 66.1974C163.247 66.1974 170.505 60.6769 170.505 50.124C170.505 39.5689 163.247 34.047 156.077 34.047Z" fill="#1ED760"/>
<path d="M189.11 59.304C184.198 59.304 180.496 55.3571 180.496 50.124C180.496 44.8689 184.07 41.0554 188.996 41.0554C193.939 41.0554 197.667 45.0021 197.667 50.2387C197.667 55.4932 194.068 59.304 189.11 59.304ZM189.11 34.0469C179.876 34.0469 172.642 41.1586 172.642 50.2387C172.642 59.2203 179.826 66.2573 188.996 66.2573C198.263 66.2573 205.518 59.1696 205.518 50.124C205.518 41.1087 198.312 34.0469 189.11 34.0469Z" fill="#1ED760"/>
<path d="M225.236 34.6735H217.697V26.9639C217.697 26.6871 217.474 26.4622 217.197 26.4622H210.347C210.07 26.4622 209.844 26.6871 209.844 26.9639V34.6735H206.55C206.274 34.6735 206.051 34.899 206.051 35.1758V41.065C206.051 41.3417 206.274 41.567 206.55 41.567H209.844V56.8061C209.844 62.9645 212.909 66.0867 218.952 66.0867C221.41 66.0867 223.449 65.5791 225.37 64.4893C225.526 64.4021 225.624 64.2337 225.624 64.0547V58.4466C225.624 58.2733 225.533 58.1104 225.385 58.0194C225.236 57.9257 225.051 57.921 224.898 57.9967C223.578 58.6607 222.302 58.9673 220.876 58.9673C218.678 58.9673 217.697 57.9696 217.697 55.7323V41.567H225.236C225.513 41.567 225.736 41.3417 225.736 41.065V35.1758C225.736 34.899 225.513 34.6735 225.236 34.6735Z" fill="#1ED760"/>
<path d="M251.502 34.7038V33.7569C251.502 30.9713 252.57 29.729 254.965 29.729C256.394 29.729 257.541 30.0127 258.826 30.4415C258.984 30.4912 259.149 30.4663 259.277 30.3716C259.41 30.2769 259.484 30.1249 259.484 29.964V24.1895C259.484 23.9688 259.343 23.7735 259.13 23.7089C257.773 23.3051 256.036 22.8901 253.436 22.8901C247.108 22.8901 243.763 26.4543 243.763 33.1938V34.644H240.472C240.196 34.644 239.969 34.8689 239.969 35.1458V41.0652C239.969 41.3418 240.196 41.5671 240.472 41.5671H243.763V65.0727C243.763 65.3495 243.987 65.5745 244.263 65.5745H251.114C251.39 65.5745 251.616 65.3495 251.616 65.0727V41.5671H258.012L267.811 65.0665C266.699 67.5355 265.605 68.0268 264.111 68.0268C262.904 68.0268 261.633 67.6662 260.334 66.955C260.211 66.8875 260.067 66.8766 259.935 66.9173C259.804 66.9639 259.694 67.0608 259.638 67.1884L257.316 72.2838C257.206 72.5245 257.3 72.8073 257.532 72.9322C259.956 74.2453 262.145 74.8058 264.849 74.8058C269.907 74.8058 272.703 72.4484 275.169 66.1075L287.054 35.3876C287.114 35.2331 287.096 35.059 287.002 34.9213C286.907 34.7858 286.755 34.7038 286.589 34.7038H279.457C279.244 34.7038 279.052 34.8393 278.983 35.0399L271.676 55.9139L263.674 35.0261C263.601 34.8319 263.414 34.7038 263.206 34.7038H251.502Z" fill="#1ED760"/>
<path d="M236.275 34.6736H229.424C229.147 34.6736 228.922 34.8991 228.922 35.1759V65.0726C228.922 65.3495 229.147 65.5745 229.424 65.5745H236.275C236.551 65.5745 236.777 65.3495 236.777 65.0726V35.1759C236.777 34.8991 236.551 34.6736 236.275 34.6736Z" fill="#1ED760"/>
<path d="M232.884 21.0608C230.171 21.0608 227.968 23.2589 227.968 25.9731C227.968 28.6894 230.171 30.8896 232.884 30.8896C235.597 30.8896 237.798 28.6894 237.798 25.9731C237.798 23.2589 235.597 21.0608 232.884 21.0608Z" fill="#1ED760"/>
<path d="M293.184 37.6475H291.929V39.2486H293.184C293.81 39.2486 294.184 38.9419 294.184 38.4476C294.184 37.9268 293.81 37.6475 293.184 37.6475ZM293.998 39.9314L295.361 41.8414H294.211L292.984 40.0896H291.929V41.8414H290.966V36.7791H293.223C294.398 36.7791 295.172 37.381 295.172 38.3938C295.172 39.2235 294.692 39.7307 293.998 39.9314ZM292.929 35.0949C290.459 35.0949 288.59 37.058 288.59 39.4629C288.59 41.8663 290.446 43.8035 292.903 43.8035C295.372 43.8035 297.243 41.8414 297.243 39.4354C297.243 37.0321 295.386 35.0949 292.929 35.0949ZM292.903 44.2859C290.192 44.2859 288.082 42.1077 288.082 39.4629C288.082 36.8177 290.219 34.6148 292.929 34.6148C295.64 34.6148 297.75 36.7928 297.75 39.4354C297.75 42.0807 295.614 44.2859 292.903 44.2859Z" fill="#1ED760"/>
</svg>
