<svg width="110" height="90" viewBox="0 0 110 90" fill="none" xmlns="http://www.w3.org/2000/svg">
<path d="M98.4456 22.628C98.5121 23.5853 98.5121 24.5427 98.5121 25.5089C98.5121 54.9486 75.9798 88.9015 34.7786 88.9015V88.8839C22.6077 88.9015 10.6895 85.4339 0.443542 78.8956C2.2133 79.1074 3.99193 79.2133 5.77499 79.2177C15.8613 79.2265 25.6593 75.8603 33.5943 69.6618C24.0093 69.4809 15.604 63.2647 12.6677 54.1897C16.0254 54.8339 19.4851 54.7015 22.7806 53.8059C12.3306 51.7059 4.81249 42.5736 4.81249 31.9677C4.81249 31.8706 4.81249 31.778 4.81249 31.6853C7.9262 33.4103 11.4125 34.3677 14.9786 34.4736C5.13628 27.9309 2.10241 14.9074 8.04596 4.72504C19.4185 18.6442 36.198 27.1059 54.2105 28.0015C52.4052 20.2633 54.8714 12.1544 60.6907 6.71474C69.7125 -1.72055 83.9016 -1.2882 92.3823 7.68092C97.3988 6.6971 102.207 4.86621 106.607 2.2721C104.935 7.42945 101.435 11.8103 96.7601 14.5942C101.2 14.0736 105.538 12.8912 109.623 11.0868C106.616 15.5692 102.828 19.4736 98.4456 22.628Z" fill="#1D9BF0"/>
</svg>
